<svg width="40" height="40" viewBox="0 0 40 40" fill="none" xmlns="http://www.w3.org/2000/svg">
  <path
    d="M0 7.87287C0 3.52481 3.52481 0 7.87287 0H32.1271C36.4752 0 40 3.52481 40 7.87287V32.1271C40 36.4752 36.4752 40 32.1271 40H7.87287C3.52481 40 0 36.4752 0 32.1271V7.87287Z"
    fill="#13131A" />
  <path d="M10.7789 8.13086H7.20898L7.20898 17.9884H10.7789L10.7789 8.13086Z" fill="#FFA621" />
  <path d="M32.8043 22.0059H29.2344V31.8634H32.8043V22.0059Z" fill="#269574" />
  <path
    d="M13.3337 13.2636C15.1162 11.4641 17.4868 10.4725 20.0066 10.4725C22.5265 10.4725 24.8971 11.4641 26.6796 13.2636C27.9839 14.5802 28.8588 16.2125 29.2345 17.9908H32.8043C32.389 15.2633 31.1337 12.7454 29.1622 10.7575C26.7193 8.28676 23.4668 6.92773 20.0066 6.92773C16.5465 6.92773 13.2963 8.28676 10.8511 10.7575C8.87956 12.7454 7.6243 15.2633 7.20898 17.9908H10.7788C11.1544 16.2125 12.0294 14.5802 13.3337 13.2636Z"
    fill="#FFA621" />
  <path
    d="M26.682 26.733C24.8994 28.5325 22.5288 29.5241 20.009 29.5241C17.4891 29.5241 15.1186 28.5325 13.336 26.733C12.0317 25.4164 11.1568 23.7841 10.7811 22.0059H7.20898C7.6243 24.7333 8.87956 27.2512 10.8511 29.2391C13.2963 31.7075 16.5488 33.0689 20.009 33.0689C23.4691 33.0689 26.7193 31.7099 29.1668 29.2391C31.1361 27.2512 32.3937 24.7333 32.809 22.0059H29.2392C28.8635 23.7841 27.9886 25.4164 26.6843 26.733H26.682Z"
    fill="#269574" />
</svg>
